# xmcd
#
# Track frame offsets: 
#        150
#        18163
#        37989
#        61250
#        79354
#        92765
#        116795
#        131621
#        150250
#        165094
#        178848
#        195198
#        210990
#        224409
#
# Disc length: 3224 seconds
#
# Revision: 1
# Processed by: cddbd v1.5.2PL0 Copyright (c) Steve Scherf et al.
# Submitted via: ExactAudioCopy v1.3
#
DISCID=aa0c960e
DTITLE=DanceVision - Let's West Coast Swing
DYEAR=1900
DGENRE=Dance
TTITLE0=Edsall, Fritz and Putnam - It Takes a Lot to Laugh, It Takes a T
TTITLE0=rain to Cry-WCS 23 MPM
TTITLE1=Susan Trexler - Give Me One Reason-WCS 25 MPM
TTITLE2=Tom Principato - Sweet Little Woman-WCS 27 MPM
TTITLE3=David Cook - Thief in the Night-WCS 25 MPM
TTITLE4=Dale Powers - Cheerleaders-WCS 27 MPM
TTITLE5=Tom Principato - Never Make Your Move Too Soon-WCS 27 MPM
TTITLE6=Donny Trexler - Tired of Pulling This Train-WCS 29 MPM
TTITLE7=Debby Dobbins - Love Thief-WCS 28 MPM
TTITLE8=Maria Howell - Optical Illusion-WCS 26 MPM
TTITLE9=First Love - Freaky-WCS 29 MPM
TTITLE10=Ike Woods - Soul Serenade-WCS 26 MPM
TTITLE11=Big Joe Maher - Statesboro Blues-WCS 31 MPM
TTITLE12=Big Joe Maher - Cross Road Blues-WCS 30 MPM
TTITLE13=Tom Principato - I'm Gone-WCS 30 MPM
EXTD=
EXTT0=
EXTT1=
EXTT2=
EXTT3=
EXTT4=
EXTT5=
EXTT6=
EXTT7=
EXTT8=
EXTT9=
EXTT10=
EXTT11=
EXTT12=
EXTT13=
PLAYORDER=
